<mxfile host="app.diagrams.net" modified="2022-07-25T03:41:43.191Z" agent="5.0 (Windows NT 10.0; Win64; x64) AppleWebKit/537.36 (KHTML, like Gecko) Chrome/103.0.0.0 Safari/537.36" etag="AwVdKz7DzDgYLaQLlomc" version="20.1.3" type="github">
  <diagram id="R4xweMAqfwO3BosUm7iH" name="第 1 页">
    <mxGraphModel dx="1422" dy="762" grid="1" gridSize="10" guides="1" tooltips="1" connect="1" arrows="1" fold="1" page="1" pageScale="1" pageWidth="827" pageHeight="1169" math="0" shadow="0">
      <root>
        <mxCell id="0" />
        <mxCell id="1" parent="0" />
        <mxCell id="5QMFtwSGgLobkVOJC3eS-13" style="edgeStyle=orthogonalEdgeStyle;rounded=0;orthogonalLoop=1;jettySize=auto;html=1;exitX=0.5;exitY=1;exitDx=0;exitDy=0;exitPerimeter=0;entryX=0.5;entryY=0;entryDx=0;entryDy=0;entryPerimeter=0;fontStyle=1;fontFamily=Courier New;fontSize=16;" edge="1" parent="1" source="5QMFtwSGgLobkVOJC3eS-1" target="5QMFtwSGgLobkVOJC3eS-5">
          <mxGeometry relative="1" as="geometry" />
        </mxCell>
        <mxCell id="5QMFtwSGgLobkVOJC3eS-1" value="用户问诊流程开始" style="strokeWidth=2;html=1;shape=mxgraph.flowchart.terminator;whiteSpace=wrap;fontStyle=1;fontFamily=Courier New;fontSize=16;" vertex="1" parent="1">
          <mxGeometry x="364" y="80" width="100" height="60" as="geometry" />
        </mxCell>
        <mxCell id="5QMFtwSGgLobkVOJC3eS-2" value="用户问诊流程结束" style="strokeWidth=2;html=1;shape=mxgraph.flowchart.terminator;whiteSpace=wrap;fontStyle=1;fontFamily=Courier New;fontSize=16;" vertex="1" parent="1">
          <mxGeometry x="210" y="480" width="100" height="60" as="geometry" />
        </mxCell>
        <mxCell id="5QMFtwSGgLobkVOJC3eS-6" style="edgeStyle=orthogonalEdgeStyle;rounded=0;orthogonalLoop=1;jettySize=auto;html=1;fontStyle=1;fontFamily=Courier New;fontSize=16;" edge="1" parent="1" source="5QMFtwSGgLobkVOJC3eS-5" target="5QMFtwSGgLobkVOJC3eS-2">
          <mxGeometry relative="1" as="geometry" />
        </mxCell>
        <mxCell id="5QMFtwSGgLobkVOJC3eS-7" value="未扫码" style="edgeLabel;html=1;align=center;verticalAlign=middle;resizable=0;points=[];fontStyle=1;fontFamily=Courier New;fontSize=16;" vertex="1" connectable="0" parent="5QMFtwSGgLobkVOJC3eS-6">
          <mxGeometry x="0.2394" relative="1" as="geometry">
            <mxPoint as="offset" />
          </mxGeometry>
        </mxCell>
        <mxCell id="5QMFtwSGgLobkVOJC3eS-8" style="edgeStyle=orthogonalEdgeStyle;rounded=0;orthogonalLoop=1;jettySize=auto;html=1;entryX=0.5;entryY=0;entryDx=0;entryDy=0;fontStyle=1;fontFamily=Courier New;fontSize=16;" edge="1" parent="1" source="5QMFtwSGgLobkVOJC3eS-5" target="5QMFtwSGgLobkVOJC3eS-10">
          <mxGeometry relative="1" as="geometry">
            <mxPoint x="580" y="410" as="targetPoint" />
          </mxGeometry>
        </mxCell>
        <mxCell id="5QMFtwSGgLobkVOJC3eS-9" value="已扫码" style="edgeLabel;html=1;align=center;verticalAlign=middle;resizable=0;points=[];fontStyle=1;fontFamily=Courier New;fontSize=16;" vertex="1" connectable="0" parent="5QMFtwSGgLobkVOJC3eS-8">
          <mxGeometry x="0.2876" relative="1" as="geometry">
            <mxPoint as="offset" />
          </mxGeometry>
        </mxCell>
        <mxCell id="5QMFtwSGgLobkVOJC3eS-5" value="是否扫码&lt;br style=&quot;font-size: 16px;&quot;&gt;医生&lt;br style=&quot;font-size: 16px;&quot;&gt;二维码" style="strokeWidth=2;html=1;shape=mxgraph.flowchart.decision;whiteSpace=wrap;fontStyle=1;fontFamily=Courier New;fontSize=16;" vertex="1" parent="1">
          <mxGeometry x="364" y="180" width="100" height="100" as="geometry" />
        </mxCell>
        <mxCell id="5QMFtwSGgLobkVOJC3eS-12" style="edgeStyle=orthogonalEdgeStyle;rounded=0;orthogonalLoop=1;jettySize=auto;html=1;exitX=0.5;exitY=1;exitDx=0;exitDy=0;fontStyle=1;fontFamily=Courier New;fontSize=16;" edge="1" parent="1" source="5QMFtwSGgLobkVOJC3eS-10" target="5QMFtwSGgLobkVOJC3eS-11">
          <mxGeometry relative="1" as="geometry" />
        </mxCell>
        <mxCell id="5QMFtwSGgLobkVOJC3eS-10" value="跳转金柏河&lt;br style=&quot;font-size: 16px;&quot;&gt;微信公众号" style="rounded=1;whiteSpace=wrap;html=1;absoluteArcSize=1;arcSize=14;strokeWidth=2;fontStyle=1;fontFamily=Courier New;fontSize=16;" vertex="1" parent="1">
          <mxGeometry x="530" y="370" width="100" height="100" as="geometry" />
        </mxCell>
        <mxCell id="5QMFtwSGgLobkVOJC3eS-14" style="edgeStyle=orthogonalEdgeStyle;rounded=0;orthogonalLoop=1;jettySize=auto;html=1;fontStyle=1;fontFamily=Courier New;fontSize=16;" edge="1" parent="1" source="5QMFtwSGgLobkVOJC3eS-11" target="5QMFtwSGgLobkVOJC3eS-21">
          <mxGeometry relative="1" as="geometry">
            <mxPoint x="463" y="680" as="targetPoint" />
          </mxGeometry>
        </mxCell>
        <mxCell id="5QMFtwSGgLobkVOJC3eS-15" value="未关注" style="edgeLabel;html=1;align=center;verticalAlign=middle;resizable=0;points=[];fontStyle=1;fontFamily=Courier New;fontSize=16;" vertex="1" connectable="0" parent="5QMFtwSGgLobkVOJC3eS-14">
          <mxGeometry x="0.4957" relative="1" as="geometry">
            <mxPoint y="-16" as="offset" />
          </mxGeometry>
        </mxCell>
        <mxCell id="5QMFtwSGgLobkVOJC3eS-39" style="edgeStyle=orthogonalEdgeStyle;rounded=0;orthogonalLoop=1;jettySize=auto;html=1;entryX=0.5;entryY=0;entryDx=0;entryDy=0;fontStyle=1;fontFamily=Courier New;fontSize=16;" edge="1" parent="1" source="5QMFtwSGgLobkVOJC3eS-11" target="5QMFtwSGgLobkVOJC3eS-37">
          <mxGeometry relative="1" as="geometry" />
        </mxCell>
        <mxCell id="5QMFtwSGgLobkVOJC3eS-41" value="已关注" style="edgeLabel;html=1;align=center;verticalAlign=middle;resizable=0;points=[];fontStyle=1;fontFamily=Courier New;fontSize=16;" vertex="1" connectable="0" parent="5QMFtwSGgLobkVOJC3eS-39">
          <mxGeometry x="0.3412" y="1" relative="1" as="geometry">
            <mxPoint x="-1" y="6" as="offset" />
          </mxGeometry>
        </mxCell>
        <mxCell id="5QMFtwSGgLobkVOJC3eS-11" value="是否关注&lt;br style=&quot;font-size: 16px;&quot;&gt;公众号" style="strokeWidth=2;html=1;shape=mxgraph.flowchart.decision;whiteSpace=wrap;fontStyle=1;fontFamily=Courier New;fontSize=16;" vertex="1" parent="1">
          <mxGeometry x="530" y="510" width="100" height="100" as="geometry" />
        </mxCell>
        <mxCell id="5QMFtwSGgLobkVOJC3eS-21" value="" style="verticalLabelPosition=bottom;verticalAlign=top;html=1;shape=mxgraph.flowchart.on-page_reference;fontStyle=1;fontFamily=Courier New;fontSize=16;" vertex="1" parent="1">
          <mxGeometry x="419" y="670" width="70" height="70" as="geometry" />
        </mxCell>
        <mxCell id="5QMFtwSGgLobkVOJC3eS-28" style="edgeStyle=orthogonalEdgeStyle;rounded=0;orthogonalLoop=1;jettySize=auto;html=1;exitX=0.5;exitY=1;exitDx=0;exitDy=0;fontStyle=1;fontFamily=Courier New;fontSize=16;" edge="1" parent="1" source="5QMFtwSGgLobkVOJC3eS-20" target="5QMFtwSGgLobkVOJC3eS-27">
          <mxGeometry relative="1" as="geometry" />
        </mxCell>
        <mxCell id="5QMFtwSGgLobkVOJC3eS-20" value="公众号&lt;br style=&quot;font-size: 16px;&quot;&gt;关注页" style="text;html=1;strokeColor=none;fillColor=none;align=center;verticalAlign=middle;whiteSpace=wrap;rounded=0;fontStyle=1;fontFamily=Courier New;fontSize=16;" vertex="1" parent="1">
          <mxGeometry x="414" y="670" width="80" height="70" as="geometry" />
        </mxCell>
        <mxCell id="5QMFtwSGgLobkVOJC3eS-22" value="" style="verticalLabelPosition=bottom;verticalAlign=top;html=1;shape=mxgraph.flowchart.on-page_reference;fontStyle=1;fontFamily=Courier New;fontSize=16;" vertex="1" parent="1">
          <mxGeometry x="675" y="760" width="70" height="70" as="geometry" />
        </mxCell>
        <mxCell id="5QMFtwSGgLobkVOJC3eS-45" style="edgeStyle=orthogonalEdgeStyle;rounded=0;orthogonalLoop=1;jettySize=auto;html=1;exitX=0.5;exitY=1;exitDx=0;exitDy=0;fontStyle=1;fontFamily=Courier New;fontSize=16;" edge="1" parent="1" source="5QMFtwSGgLobkVOJC3eS-23" target="5QMFtwSGgLobkVOJC3eS-44">
          <mxGeometry relative="1" as="geometry" />
        </mxCell>
        <mxCell id="5QMFtwSGgLobkVOJC3eS-23" value="公众号&lt;br style=&quot;font-size: 16px;&quot;&gt;对话框页" style="text;html=1;strokeColor=none;fillColor=none;align=center;verticalAlign=middle;whiteSpace=wrap;rounded=0;fontStyle=1;fontFamily=Courier New;fontSize=16;" vertex="1" parent="1">
          <mxGeometry x="670" y="760" width="80" height="70" as="geometry" />
        </mxCell>
        <mxCell id="5QMFtwSGgLobkVOJC3eS-30" style="edgeStyle=orthogonalEdgeStyle;rounded=0;orthogonalLoop=1;jettySize=auto;html=1;entryX=0.5;entryY=1;entryDx=0;entryDy=0;entryPerimeter=0;fontStyle=1;fontFamily=Courier New;fontSize=16;" edge="1" parent="1" source="5QMFtwSGgLobkVOJC3eS-27" target="5QMFtwSGgLobkVOJC3eS-2">
          <mxGeometry relative="1" as="geometry" />
        </mxCell>
        <mxCell id="5QMFtwSGgLobkVOJC3eS-31" value="未关注" style="edgeLabel;html=1;align=center;verticalAlign=middle;resizable=0;points=[];fontStyle=1;fontFamily=Courier New;fontSize=16;" vertex="1" connectable="0" parent="5QMFtwSGgLobkVOJC3eS-30">
          <mxGeometry x="-0.206" y="1" relative="1" as="geometry">
            <mxPoint x="1" y="-36" as="offset" />
          </mxGeometry>
        </mxCell>
        <mxCell id="5QMFtwSGgLobkVOJC3eS-42" style="edgeStyle=orthogonalEdgeStyle;rounded=0;orthogonalLoop=1;jettySize=auto;html=1;entryX=0;entryY=0.5;entryDx=0;entryDy=0;fontStyle=1;fontFamily=Courier New;fontSize=16;" edge="1" parent="1" source="5QMFtwSGgLobkVOJC3eS-27" target="5QMFtwSGgLobkVOJC3eS-37">
          <mxGeometry relative="1" as="geometry" />
        </mxCell>
        <mxCell id="5QMFtwSGgLobkVOJC3eS-43" value="关注" style="edgeLabel;html=1;align=center;verticalAlign=middle;resizable=0;points=[];fontStyle=1;fontFamily=Courier New;fontSize=16;" vertex="1" connectable="0" parent="5QMFtwSGgLobkVOJC3eS-42">
          <mxGeometry x="-0.1927" y="-2" relative="1" as="geometry">
            <mxPoint x="-6" y="-24" as="offset" />
          </mxGeometry>
        </mxCell>
        <mxCell id="5QMFtwSGgLobkVOJC3eS-27" value="点击关注&lt;br style=&quot;font-size: 16px;&quot;&gt;公众号" style="strokeWidth=2;html=1;shape=mxgraph.flowchart.decision;whiteSpace=wrap;fontStyle=1;fontFamily=Courier New;fontSize=16;" vertex="1" parent="1">
          <mxGeometry x="404" y="780" width="100" height="100" as="geometry" />
        </mxCell>
        <mxCell id="5QMFtwSGgLobkVOJC3eS-40" style="edgeStyle=orthogonalEdgeStyle;rounded=0;orthogonalLoop=1;jettySize=auto;html=1;fontStyle=1;fontFamily=Courier New;fontSize=16;" edge="1" parent="1" source="5QMFtwSGgLobkVOJC3eS-37" target="5QMFtwSGgLobkVOJC3eS-23">
          <mxGeometry relative="1" as="geometry" />
        </mxCell>
        <mxCell id="5QMFtwSGgLobkVOJC3eS-37" value="系统推送&lt;br style=&quot;font-size: 16px;&quot;&gt;进入医生诊室&lt;br style=&quot;font-size: 16px;&quot;&gt;公众号消息" style="rounded=1;whiteSpace=wrap;html=1;absoluteArcSize=1;arcSize=14;strokeWidth=2;fontStyle=1;fontFamily=Courier New;fontSize=16;" vertex="1" parent="1">
          <mxGeometry x="665" y="650" width="125" height="60" as="geometry" />
        </mxCell>
        <mxCell id="5QMFtwSGgLobkVOJC3eS-46" style="edgeStyle=orthogonalEdgeStyle;rounded=0;orthogonalLoop=1;jettySize=auto;html=1;entryX=0;entryY=0.5;entryDx=0;entryDy=0;entryPerimeter=0;fontStyle=1;fontFamily=Courier New;fontSize=16;" edge="1" parent="1" source="5QMFtwSGgLobkVOJC3eS-44" target="5QMFtwSGgLobkVOJC3eS-2">
          <mxGeometry relative="1" as="geometry">
            <Array as="points">
              <mxPoint x="160" y="920" />
              <mxPoint x="160" y="510" />
            </Array>
          </mxGeometry>
        </mxCell>
        <mxCell id="5QMFtwSGgLobkVOJC3eS-47" value="未点击" style="edgeLabel;html=1;align=center;verticalAlign=middle;resizable=0;points=[];fontStyle=1;fontFamily=Courier New;fontSize=16;" vertex="1" connectable="0" parent="5QMFtwSGgLobkVOJC3eS-46">
          <mxGeometry x="-0.5778" y="-2" relative="1" as="geometry">
            <mxPoint y="10" as="offset" />
          </mxGeometry>
        </mxCell>
        <mxCell id="5QMFtwSGgLobkVOJC3eS-48" style="edgeStyle=orthogonalEdgeStyle;rounded=0;orthogonalLoop=1;jettySize=auto;html=1;entryX=0.5;entryY=0;entryDx=0;entryDy=0;fontStyle=1;fontFamily=Courier New;fontSize=16;" edge="1" parent="1" source="5QMFtwSGgLobkVOJC3eS-44" target="5QMFtwSGgLobkVOJC3eS-51">
          <mxGeometry relative="1" as="geometry">
            <mxPoint x="840" y="1010" as="targetPoint" />
          </mxGeometry>
        </mxCell>
        <mxCell id="5QMFtwSGgLobkVOJC3eS-49" value="已点击" style="edgeLabel;html=1;align=center;verticalAlign=middle;resizable=0;points=[];fontStyle=1;fontFamily=Courier New;fontSize=16;" vertex="1" connectable="0" parent="5QMFtwSGgLobkVOJC3eS-48">
          <mxGeometry x="0.2941" y="1" relative="1" as="geometry">
            <mxPoint x="-41" y="-4" as="offset" />
          </mxGeometry>
        </mxCell>
        <mxCell id="5QMFtwSGgLobkVOJC3eS-44" value="&lt;font style=&quot;font-size: 12px;&quot;&gt;是否点击进入&lt;br style=&quot;&quot;&gt;医生诊室消息&lt;/font&gt;" style="strokeWidth=2;html=1;shape=mxgraph.flowchart.decision;whiteSpace=wrap;fontStyle=1;fontFamily=Courier New;fontSize=16;" vertex="1" parent="1">
          <mxGeometry x="660" y="870" width="100" height="80" as="geometry" />
        </mxCell>
        <mxCell id="5QMFtwSGgLobkVOJC3eS-50" value="" style="verticalLabelPosition=bottom;verticalAlign=top;html=1;shape=mxgraph.flowchart.on-page_reference;fontStyle=1;fontFamily=Courier New;fontSize=16;" vertex="1" parent="1">
          <mxGeometry x="805" y="970" width="70" height="70" as="geometry" />
        </mxCell>
        <mxCell id="5QMFtwSGgLobkVOJC3eS-60" style="edgeStyle=orthogonalEdgeStyle;rounded=0;orthogonalLoop=1;jettySize=auto;html=1;exitX=0.5;exitY=1;exitDx=0;exitDy=0;entryX=0.5;entryY=0;entryDx=0;entryDy=0;entryPerimeter=0;fontStyle=1;fontFamily=Courier New;fontSize=16;" edge="1" parent="1" source="5QMFtwSGgLobkVOJC3eS-51" target="5QMFtwSGgLobkVOJC3eS-59">
          <mxGeometry relative="1" as="geometry">
            <mxPoint x="840" y="1060" as="targetPoint" />
          </mxGeometry>
        </mxCell>
        <mxCell id="5QMFtwSGgLobkVOJC3eS-51" value="金柏河&lt;br style=&quot;font-size: 16px;&quot;&gt;小程序&lt;br style=&quot;font-size: 16px;&quot;&gt;登录页" style="text;html=1;strokeColor=none;fillColor=none;align=center;verticalAlign=middle;whiteSpace=wrap;rounded=0;fontStyle=1;fontFamily=Courier New;fontSize=16;" vertex="1" parent="1">
          <mxGeometry x="800" y="970" width="80" height="70" as="geometry" />
        </mxCell>
        <mxCell id="5QMFtwSGgLobkVOJC3eS-62" style="edgeStyle=orthogonalEdgeStyle;rounded=0;orthogonalLoop=1;jettySize=auto;html=1;entryX=0;entryY=0.5;entryDx=0;entryDy=0;entryPerimeter=0;fontStyle=1;fontFamily=Courier New;fontSize=16;" edge="1" parent="1" source="5QMFtwSGgLobkVOJC3eS-59" target="5QMFtwSGgLobkVOJC3eS-2">
          <mxGeometry relative="1" as="geometry">
            <Array as="points">
              <mxPoint x="160" y="1130" />
              <mxPoint x="160" y="510" />
            </Array>
          </mxGeometry>
        </mxCell>
        <mxCell id="5QMFtwSGgLobkVOJC3eS-63" value="未登录" style="edgeLabel;html=1;align=center;verticalAlign=middle;resizable=0;points=[];fontStyle=1;fontFamily=Courier New;fontSize=16;" vertex="1" connectable="0" parent="5QMFtwSGgLobkVOJC3eS-62">
          <mxGeometry x="-0.4369" y="1" relative="1" as="geometry">
            <mxPoint x="30" y="-1" as="offset" />
          </mxGeometry>
        </mxCell>
        <mxCell id="5QMFtwSGgLobkVOJC3eS-64" style="edgeStyle=orthogonalEdgeStyle;rounded=0;orthogonalLoop=1;jettySize=auto;html=1;entryX=0.5;entryY=0;entryDx=0;entryDy=0;fontStyle=1;fontFamily=Courier New;fontSize=16;" edge="1" parent="1" source="5QMFtwSGgLobkVOJC3eS-59" target="5QMFtwSGgLobkVOJC3eS-67">
          <mxGeometry relative="1" as="geometry">
            <mxPoint x="980" y="1200" as="targetPoint" />
          </mxGeometry>
        </mxCell>
        <mxCell id="5QMFtwSGgLobkVOJC3eS-65" value="已登录" style="edgeLabel;html=1;align=center;verticalAlign=middle;resizable=0;points=[];fontStyle=1;fontFamily=Courier New;fontSize=16;" vertex="1" connectable="0" parent="5QMFtwSGgLobkVOJC3eS-64">
          <mxGeometry x="-0.5704" y="-3" relative="1" as="geometry">
            <mxPoint x="3" y="-3" as="offset" />
          </mxGeometry>
        </mxCell>
        <mxCell id="5QMFtwSGgLobkVOJC3eS-59" value="是否登录" style="strokeWidth=2;html=1;shape=mxgraph.flowchart.decision;whiteSpace=wrap;fontStyle=1;fontFamily=Courier New;fontSize=16;" vertex="1" parent="1">
          <mxGeometry x="790" y="1080" width="100" height="100" as="geometry" />
        </mxCell>
        <mxCell id="5QMFtwSGgLobkVOJC3eS-66" value="" style="verticalLabelPosition=bottom;verticalAlign=top;html=1;shape=mxgraph.flowchart.on-page_reference;fontStyle=1;fontFamily=Courier New;fontSize=16;" vertex="1" parent="1">
          <mxGeometry x="945" y="1200" width="70" height="70" as="geometry" />
        </mxCell>
        <mxCell id="5QMFtwSGgLobkVOJC3eS-69" style="edgeStyle=orthogonalEdgeStyle;rounded=0;orthogonalLoop=1;jettySize=auto;html=1;fontStyle=1;fontFamily=Courier New;fontSize=16;" edge="1" parent="1" source="5QMFtwSGgLobkVOJC3eS-67" target="5QMFtwSGgLobkVOJC3eS-68">
          <mxGeometry relative="1" as="geometry" />
        </mxCell>
        <mxCell id="5QMFtwSGgLobkVOJC3eS-67" value="金柏河&lt;br style=&quot;font-size: 16px;&quot;&gt;小程序&lt;br style=&quot;font-size: 16px;&quot;&gt;首页" style="text;html=1;strokeColor=none;fillColor=none;align=center;verticalAlign=middle;whiteSpace=wrap;rounded=0;fontStyle=1;fontFamily=Courier New;fontSize=16;" vertex="1" parent="1">
          <mxGeometry x="940" y="1200" width="80" height="70" as="geometry" />
        </mxCell>
        <mxCell id="5QMFtwSGgLobkVOJC3eS-71" style="edgeStyle=orthogonalEdgeStyle;rounded=0;orthogonalLoop=1;jettySize=auto;html=1;entryX=0;entryY=0.5;entryDx=0;entryDy=0;entryPerimeter=0;fontStyle=1;fontFamily=Courier New;fontSize=16;" edge="1" parent="1" source="5QMFtwSGgLobkVOJC3eS-68" target="5QMFtwSGgLobkVOJC3eS-2">
          <mxGeometry relative="1" as="geometry">
            <mxPoint x="180" y="480" as="targetPoint" />
            <Array as="points">
              <mxPoint x="160" y="1350" />
              <mxPoint x="160" y="510" />
            </Array>
          </mxGeometry>
        </mxCell>
        <mxCell id="5QMFtwSGgLobkVOJC3eS-72" value="未问诊" style="edgeLabel;html=1;align=center;verticalAlign=middle;resizable=0;points=[];fontStyle=1;fontFamily=Courier New;fontSize=16;" vertex="1" connectable="0" parent="5QMFtwSGgLobkVOJC3eS-71">
          <mxGeometry x="-0.4506" y="4" relative="1" as="geometry">
            <mxPoint x="-20" y="-4" as="offset" />
          </mxGeometry>
        </mxCell>
        <mxCell id="5QMFtwSGgLobkVOJC3eS-73" style="edgeStyle=orthogonalEdgeStyle;rounded=0;orthogonalLoop=1;jettySize=auto;html=1;entryX=0.5;entryY=0;entryDx=0;entryDy=0;fontStyle=1;fontFamily=Courier New;fontSize=16;" edge="1" parent="1" source="5QMFtwSGgLobkVOJC3eS-68" target="5QMFtwSGgLobkVOJC3eS-75">
          <mxGeometry relative="1" as="geometry">
            <mxPoint x="1130" y="1530" as="targetPoint" />
          </mxGeometry>
        </mxCell>
        <mxCell id="5QMFtwSGgLobkVOJC3eS-74" value="问诊" style="edgeLabel;html=1;align=center;verticalAlign=middle;resizable=0;points=[];fontStyle=1;fontFamily=Courier New;fontSize=16;" vertex="1" connectable="0" parent="5QMFtwSGgLobkVOJC3eS-73">
          <mxGeometry x="-0.5143" y="-4" relative="1" as="geometry">
            <mxPoint x="14" y="-4" as="offset" />
          </mxGeometry>
        </mxCell>
        <mxCell id="5QMFtwSGgLobkVOJC3eS-68" value="是否问诊" style="strokeWidth=2;html=1;shape=mxgraph.flowchart.decision;whiteSpace=wrap;fontStyle=1;fontFamily=Courier New;fontSize=16;" vertex="1" parent="1">
          <mxGeometry x="930" y="1300" width="100" height="100" as="geometry" />
        </mxCell>
        <mxCell id="5QMFtwSGgLobkVOJC3eS-77" style="edgeStyle=orthogonalEdgeStyle;rounded=0;orthogonalLoop=1;jettySize=auto;html=1;entryX=0.5;entryY=0;entryDx=0;entryDy=0;entryPerimeter=0;fontStyle=1;fontFamily=Courier New;fontSize=16;" edge="1" parent="1" source="5QMFtwSGgLobkVOJC3eS-75" target="5QMFtwSGgLobkVOJC3eS-76">
          <mxGeometry relative="1" as="geometry" />
        </mxCell>
        <mxCell id="5QMFtwSGgLobkVOJC3eS-75" value="选择就诊人&lt;br style=&quot;font-size: 16px;&quot;&gt;填写病情说明&lt;br style=&quot;font-size: 16px;&quot;&gt;上传附件材料" style="verticalLabelPosition=middle;verticalAlign=middle;html=1;shape=trapezoid;perimeter=trapezoidPerimeter;whiteSpace=wrap;size=0.23;arcSize=10;flipV=1;labelPosition=center;align=center;fontStyle=1;fontFamily=Courier New;fontSize=16;" vertex="1" parent="1">
          <mxGeometry x="1080" y="1400" width="100" height="60" as="geometry" />
        </mxCell>
        <mxCell id="5QMFtwSGgLobkVOJC3eS-78" style="edgeStyle=orthogonalEdgeStyle;rounded=0;orthogonalLoop=1;jettySize=auto;html=1;entryX=0;entryY=0.5;entryDx=0;entryDy=0;entryPerimeter=0;fontStyle=1;fontFamily=Courier New;fontSize=16;" edge="1" parent="1" source="5QMFtwSGgLobkVOJC3eS-76" target="5QMFtwSGgLobkVOJC3eS-2">
          <mxGeometry relative="1" as="geometry">
            <mxPoint x="160" y="1300" as="targetPoint" />
            <Array as="points">
              <mxPoint x="160" y="1540" />
              <mxPoint x="160" y="510" />
            </Array>
          </mxGeometry>
        </mxCell>
        <mxCell id="5QMFtwSGgLobkVOJC3eS-79" value="未支付" style="edgeLabel;html=1;align=center;verticalAlign=middle;resizable=0;points=[];fontStyle=1;fontFamily=Courier New;fontSize=16;" vertex="1" connectable="0" parent="5QMFtwSGgLobkVOJC3eS-78">
          <mxGeometry x="-0.358" y="-2" relative="1" as="geometry">
            <mxPoint x="12" y="2" as="offset" />
          </mxGeometry>
        </mxCell>
        <mxCell id="5QMFtwSGgLobkVOJC3eS-81" style="edgeStyle=orthogonalEdgeStyle;rounded=0;orthogonalLoop=1;jettySize=auto;html=1;fontStyle=1;fontFamily=Courier New;fontSize=16;" edge="1" parent="1" source="5QMFtwSGgLobkVOJC3eS-76" target="5QMFtwSGgLobkVOJC3eS-83">
          <mxGeometry relative="1" as="geometry">
            <mxPoint x="1240" y="1650" as="targetPoint" />
          </mxGeometry>
        </mxCell>
        <mxCell id="5QMFtwSGgLobkVOJC3eS-82" value="已支付" style="edgeLabel;html=1;align=center;verticalAlign=middle;resizable=0;points=[];fontStyle=1;fontFamily=Courier New;fontSize=16;" vertex="1" connectable="0" parent="5QMFtwSGgLobkVOJC3eS-81">
          <mxGeometry x="-0.113" relative="1" as="geometry">
            <mxPoint x="1" y="35" as="offset" />
          </mxGeometry>
        </mxCell>
        <mxCell id="5QMFtwSGgLobkVOJC3eS-76" value="是否支付" style="strokeWidth=2;html=1;shape=mxgraph.flowchart.decision;whiteSpace=wrap;fontStyle=1;fontFamily=Courier New;fontSize=16;" vertex="1" parent="1">
          <mxGeometry x="1080" y="1490" width="100" height="100" as="geometry" />
        </mxCell>
        <mxCell id="5QMFtwSGgLobkVOJC3eS-119" style="edgeStyle=orthogonalEdgeStyle;rounded=0;orthogonalLoop=1;jettySize=auto;html=1;exitX=0.5;exitY=1;exitDx=0;exitDy=0;fontStyle=1;fontFamily=Courier New;fontSize=16;" edge="1" parent="1" source="5QMFtwSGgLobkVOJC3eS-83" target="5QMFtwSGgLobkVOJC3eS-110">
          <mxGeometry relative="1" as="geometry">
            <mxPoint x="1190" y="1760" as="sourcePoint" />
          </mxGeometry>
        </mxCell>
        <mxCell id="5QMFtwSGgLobkVOJC3eS-83" value="&lt;span style=&quot;font-size: 16px;&quot;&gt;建立患者和医生&lt;/span&gt;&lt;br style=&quot;font-size: 16px;&quot;&gt;&lt;span style=&quot;font-size: 16px;&quot;&gt;问诊聊天室,患者和医生自行交流&lt;/span&gt;" style="rounded=1;whiteSpace=wrap;html=1;absoluteArcSize=1;arcSize=14;strokeWidth=2;fontStyle=1;fontFamily=Courier New;fontSize=16;" vertex="1" parent="1">
          <mxGeometry x="1191" y="1640" width="100" height="100" as="geometry" />
        </mxCell>
        <mxCell id="5QMFtwSGgLobkVOJC3eS-84" style="edgeStyle=orthogonalEdgeStyle;rounded=0;orthogonalLoop=1;jettySize=auto;html=1;fontSize=16;fontFamily=Courier New;fontStyle=1" edge="1" parent="1" source="5QMFtwSGgLobkVOJC3eS-88">
          <mxGeometry relative="1" as="geometry">
            <mxPoint x="870" y="1970" as="targetPoint" />
          </mxGeometry>
        </mxCell>
        <mxCell id="5QMFtwSGgLobkVOJC3eS-85" value="未开处方" style="edgeLabel;html=1;align=center;verticalAlign=middle;resizable=0;points=[];fontSize=16;fontFamily=Courier New;fontStyle=1" vertex="1" connectable="0" parent="5QMFtwSGgLobkVOJC3eS-84">
          <mxGeometry x="0.1125" y="-1" relative="1" as="geometry">
            <mxPoint as="offset" />
          </mxGeometry>
        </mxCell>
        <mxCell id="5QMFtwSGgLobkVOJC3eS-86" style="edgeStyle=orthogonalEdgeStyle;rounded=0;orthogonalLoop=1;jettySize=auto;html=1;fontSize=16;fontFamily=Courier New;fontStyle=1" edge="1" parent="1" source="5QMFtwSGgLobkVOJC3eS-88">
          <mxGeometry relative="1" as="geometry">
            <mxPoint x="1060" y="1970" as="targetPoint" />
          </mxGeometry>
        </mxCell>
        <mxCell id="5QMFtwSGgLobkVOJC3eS-87" value="开处方" style="edgeLabel;html=1;align=center;verticalAlign=middle;resizable=0;points=[];fontSize=16;fontFamily=Courier New;fontStyle=1" vertex="1" connectable="0" parent="5QMFtwSGgLobkVOJC3eS-86">
          <mxGeometry x="0.0941" y="-2" relative="1" as="geometry">
            <mxPoint y="7" as="offset" />
          </mxGeometry>
        </mxCell>
        <mxCell id="5QMFtwSGgLobkVOJC3eS-88" value="医生是否&lt;br style=&quot;font-size: 16px;&quot;&gt;开具处方" style="strokeWidth=2;html=1;shape=mxgraph.flowchart.decision;whiteSpace=wrap;fontSize=16;fontFamily=Courier New;fontStyle=1" vertex="1" parent="1">
          <mxGeometry x="910" y="1800" width="100" height="100" as="geometry" />
        </mxCell>
        <mxCell id="5QMFtwSGgLobkVOJC3eS-89" value="医生结束问诊" style="verticalLabelPosition=middle;verticalAlign=middle;html=1;shape=trapezoid;perimeter=trapezoidPerimeter;whiteSpace=wrap;size=0.23;arcSize=10;flipV=1;labelPosition=center;align=center;fontSize=16;fontFamily=Courier New;fontStyle=1" vertex="1" parent="1">
          <mxGeometry x="810" y="1970" width="120" height="60" as="geometry" />
        </mxCell>
        <mxCell id="5QMFtwSGgLobkVOJC3eS-90" style="edgeStyle=orthogonalEdgeStyle;rounded=0;orthogonalLoop=1;jettySize=auto;html=1;fontSize=16;fontFamily=Courier New;fontStyle=1" edge="1" parent="1" source="5QMFtwSGgLobkVOJC3eS-91" target="5QMFtwSGgLobkVOJC3eS-101">
          <mxGeometry relative="1" as="geometry" />
        </mxCell>
        <mxCell id="5QMFtwSGgLobkVOJC3eS-91" value="生成处方记录&lt;br style=&quot;font-size: 16px;&quot;&gt;&amp;amp; 购药订单" style="rounded=1;whiteSpace=wrap;html=1;absoluteArcSize=1;arcSize=14;strokeWidth=2;fontSize=16;fontFamily=Courier New;fontStyle=1" vertex="1" parent="1">
          <mxGeometry x="1010" y="1970" width="100" height="60" as="geometry" />
        </mxCell>
        <mxCell id="5QMFtwSGgLobkVOJC3eS-92" style="edgeStyle=orthogonalEdgeStyle;rounded=0;orthogonalLoop=1;jettySize=auto;html=1;exitX=0.5;exitY=1;exitDx=0;exitDy=0;entryX=0.5;entryY=0;entryDx=0;entryDy=0;entryPerimeter=0;fontSize=16;fontFamily=Courier New;fontStyle=1" edge="1" parent="1" source="5QMFtwSGgLobkVOJC3eS-93" target="5QMFtwSGgLobkVOJC3eS-97">
          <mxGeometry relative="1" as="geometry" />
        </mxCell>
        <mxCell id="5QMFtwSGgLobkVOJC3eS-93" value="处方审核" style="rounded=1;whiteSpace=wrap;html=1;absoluteArcSize=1;arcSize=14;strokeWidth=2;fontSize=16;fontFamily=Courier New;fontStyle=1" vertex="1" parent="1">
          <mxGeometry x="1130" y="2220" width="100" height="60" as="geometry" />
        </mxCell>
        <mxCell id="5QMFtwSGgLobkVOJC3eS-95" style="edgeStyle=orthogonalEdgeStyle;rounded=0;orthogonalLoop=1;jettySize=auto;html=1;fontSize=16;fontFamily=Courier New;fontStyle=1" edge="1" parent="1" source="5QMFtwSGgLobkVOJC3eS-97">
          <mxGeometry relative="1" as="geometry">
            <mxPoint x="1280" y="2490" as="targetPoint" />
            <Array as="points">
              <mxPoint x="1280" y="2370" />
            </Array>
          </mxGeometry>
        </mxCell>
        <mxCell id="5QMFtwSGgLobkVOJC3eS-96" value="审核通过" style="edgeLabel;html=1;align=center;verticalAlign=middle;resizable=0;points=[];fontSize=16;fontFamily=Courier New;fontStyle=1" vertex="1" connectable="0" parent="5QMFtwSGgLobkVOJC3eS-95">
          <mxGeometry x="0.0957" y="-2" relative="1" as="geometry">
            <mxPoint y="2" as="offset" />
          </mxGeometry>
        </mxCell>
        <mxCell id="5QMFtwSGgLobkVOJC3eS-124" style="edgeStyle=orthogonalEdgeStyle;rounded=0;orthogonalLoop=1;jettySize=auto;html=1;entryX=0;entryY=0.5;entryDx=0;entryDy=0;entryPerimeter=0;fontStyle=1;fontFamily=Courier New;fontSize=16;" edge="1" parent="1" source="5QMFtwSGgLobkVOJC3eS-97" target="5QMFtwSGgLobkVOJC3eS-2">
          <mxGeometry relative="1" as="geometry">
            <mxPoint x="170" y="2210" as="targetPoint" />
            <Array as="points">
              <mxPoint x="160" y="2370" />
              <mxPoint x="160" y="510" />
            </Array>
          </mxGeometry>
        </mxCell>
        <mxCell id="5QMFtwSGgLobkVOJC3eS-97" value="审核是否通过" style="strokeWidth=2;html=1;shape=mxgraph.flowchart.decision;whiteSpace=wrap;fontSize=16;fontFamily=Courier New;fontStyle=1" vertex="1" parent="1">
          <mxGeometry x="1130" y="2320" width="100" height="100" as="geometry" />
        </mxCell>
        <mxCell id="5QMFtwSGgLobkVOJC3eS-99" style="edgeStyle=orthogonalEdgeStyle;rounded=0;orthogonalLoop=1;jettySize=auto;html=1;entryX=0.5;entryY=0;entryDx=0;entryDy=0;fontSize=16;exitX=1;exitY=0.5;exitDx=0;exitDy=0;exitPerimeter=0;fontFamily=Courier New;fontStyle=1" edge="1" parent="1" source="5QMFtwSGgLobkVOJC3eS-101" target="5QMFtwSGgLobkVOJC3eS-93">
          <mxGeometry relative="1" as="geometry">
            <mxPoint x="1120" y="2130" as="sourcePoint" />
          </mxGeometry>
        </mxCell>
        <mxCell id="5QMFtwSGgLobkVOJC3eS-100" value="已支付" style="edgeLabel;html=1;align=center;verticalAlign=middle;resizable=0;points=[];fontSize=16;fontFamily=Courier New;fontStyle=1" vertex="1" connectable="0" parent="5QMFtwSGgLobkVOJC3eS-99">
          <mxGeometry x="0.2667" y="1" relative="1" as="geometry">
            <mxPoint x="-1" y="19" as="offset" />
          </mxGeometry>
        </mxCell>
        <mxCell id="5QMFtwSGgLobkVOJC3eS-101" value="用户是否支付" style="strokeWidth=2;html=1;shape=mxgraph.flowchart.decision;whiteSpace=wrap;fontSize=16;fontFamily=Courier New;fontStyle=1" vertex="1" parent="1">
          <mxGeometry x="1010" y="2080" width="100" height="100" as="geometry" />
        </mxCell>
        <mxCell id="5QMFtwSGgLobkVOJC3eS-102" value="医生是否&lt;br style=&quot;font-size: 16px;&quot;&gt;开具处方" style="strokeWidth=2;html=1;shape=mxgraph.flowchart.decision;whiteSpace=wrap;fontSize=16;fontFamily=Courier New;fontStyle=1" vertex="1" parent="1">
          <mxGeometry x="910" y="1800" width="100" height="100" as="geometry" />
        </mxCell>
        <mxCell id="5QMFtwSGgLobkVOJC3eS-103" value="医生结束问诊" style="verticalLabelPosition=middle;verticalAlign=middle;html=1;shape=trapezoid;perimeter=trapezoidPerimeter;whiteSpace=wrap;size=0.23;arcSize=10;flipV=1;labelPosition=center;align=center;fontSize=16;fontFamily=Courier New;fontStyle=1" vertex="1" parent="1">
          <mxGeometry x="810" y="1970" width="120" height="60" as="geometry" />
        </mxCell>
        <mxCell id="5QMFtwSGgLobkVOJC3eS-104" style="edgeStyle=orthogonalEdgeStyle;rounded=0;orthogonalLoop=1;jettySize=auto;html=1;fontSize=16;fontFamily=Courier New;fontStyle=1" edge="1" parent="1" source="5QMFtwSGgLobkVOJC3eS-102">
          <mxGeometry relative="1" as="geometry">
            <mxPoint x="870" y="1970" as="targetPoint" />
          </mxGeometry>
        </mxCell>
        <mxCell id="5QMFtwSGgLobkVOJC3eS-105" value="未开处方" style="edgeLabel;html=1;align=center;verticalAlign=middle;resizable=0;points=[];fontSize=16;fontFamily=Courier New;fontStyle=1" vertex="1" connectable="0" parent="5QMFtwSGgLobkVOJC3eS-104">
          <mxGeometry x="0.1125" y="-1" relative="1" as="geometry">
            <mxPoint as="offset" />
          </mxGeometry>
        </mxCell>
        <mxCell id="5QMFtwSGgLobkVOJC3eS-106" style="edgeStyle=orthogonalEdgeStyle;rounded=0;orthogonalLoop=1;jettySize=auto;html=1;fontSize=16;fontFamily=Courier New;fontStyle=1" edge="1" parent="1" source="5QMFtwSGgLobkVOJC3eS-102">
          <mxGeometry relative="1" as="geometry">
            <mxPoint x="1060" y="1970" as="targetPoint" />
          </mxGeometry>
        </mxCell>
        <mxCell id="5QMFtwSGgLobkVOJC3eS-107" value="开处方" style="edgeLabel;html=1;align=center;verticalAlign=middle;resizable=0;points=[];fontSize=16;fontFamily=Courier New;fontStyle=1" vertex="1" connectable="0" parent="5QMFtwSGgLobkVOJC3eS-106">
          <mxGeometry x="0.0941" y="-2" relative="1" as="geometry">
            <mxPoint y="7" as="offset" />
          </mxGeometry>
        </mxCell>
        <mxCell id="5QMFtwSGgLobkVOJC3eS-108" value="生成处方记录&lt;br style=&quot;font-size: 16px;&quot;&gt;&amp;amp; 购药订单" style="rounded=1;whiteSpace=wrap;html=1;absoluteArcSize=1;arcSize=14;strokeWidth=2;fontSize=16;fontFamily=Courier New;fontStyle=1" vertex="1" parent="1">
          <mxGeometry x="1010" y="1970" width="100" height="60" as="geometry" />
        </mxCell>
        <mxCell id="5QMFtwSGgLobkVOJC3eS-109" value="用户是否支付" style="strokeWidth=2;html=1;shape=mxgraph.flowchart.decision;whiteSpace=wrap;fontSize=16;fontFamily=Courier New;fontStyle=1" vertex="1" parent="1">
          <mxGeometry x="1010" y="2080" width="100" height="100" as="geometry" />
        </mxCell>
        <mxCell id="5QMFtwSGgLobkVOJC3eS-110" value="医生是否&lt;br style=&quot;font-size: 16px;&quot;&gt;开具处方" style="strokeWidth=2;html=1;shape=mxgraph.flowchart.decision;whiteSpace=wrap;fontSize=16;fontFamily=Courier New;fontStyle=1" vertex="1" parent="1">
          <mxGeometry x="910" y="1800" width="100" height="100" as="geometry" />
        </mxCell>
        <mxCell id="5QMFtwSGgLobkVOJC3eS-121" style="edgeStyle=orthogonalEdgeStyle;rounded=0;orthogonalLoop=1;jettySize=auto;html=1;entryX=0;entryY=0.5;entryDx=0;entryDy=0;entryPerimeter=0;fontStyle=1;fontFamily=Courier New;fontSize=16;" edge="1" parent="1" source="5QMFtwSGgLobkVOJC3eS-111" target="5QMFtwSGgLobkVOJC3eS-2">
          <mxGeometry relative="1" as="geometry">
            <Array as="points">
              <mxPoint x="160" y="2000" />
              <mxPoint x="160" y="510" />
            </Array>
          </mxGeometry>
        </mxCell>
        <mxCell id="5QMFtwSGgLobkVOJC3eS-111" value="医生点击&lt;br style=&quot;font-size: 16px;&quot;&gt;结束问诊" style="verticalLabelPosition=middle;verticalAlign=middle;html=1;shape=trapezoid;perimeter=trapezoidPerimeter;whiteSpace=wrap;size=0.23;arcSize=10;flipV=1;labelPosition=center;align=center;fontSize=16;fontFamily=Courier New;fontStyle=1" vertex="1" parent="1">
          <mxGeometry x="810" y="1970" width="120" height="60" as="geometry" />
        </mxCell>
        <mxCell id="5QMFtwSGgLobkVOJC3eS-112" style="edgeStyle=orthogonalEdgeStyle;rounded=0;orthogonalLoop=1;jettySize=auto;html=1;fontSize=16;fontFamily=Courier New;fontStyle=1" edge="1" parent="1" source="5QMFtwSGgLobkVOJC3eS-110">
          <mxGeometry relative="1" as="geometry">
            <mxPoint x="870" y="1970" as="targetPoint" />
          </mxGeometry>
        </mxCell>
        <mxCell id="5QMFtwSGgLobkVOJC3eS-113" value="未开处方" style="edgeLabel;html=1;align=center;verticalAlign=middle;resizable=0;points=[];fontSize=16;fontFamily=Courier New;fontStyle=1" vertex="1" connectable="0" parent="5QMFtwSGgLobkVOJC3eS-112">
          <mxGeometry x="0.1125" y="-1" relative="1" as="geometry">
            <mxPoint as="offset" />
          </mxGeometry>
        </mxCell>
        <mxCell id="5QMFtwSGgLobkVOJC3eS-114" style="edgeStyle=orthogonalEdgeStyle;rounded=0;orthogonalLoop=1;jettySize=auto;html=1;fontSize=16;fontFamily=Courier New;fontStyle=1" edge="1" parent="1" source="5QMFtwSGgLobkVOJC3eS-110">
          <mxGeometry relative="1" as="geometry">
            <mxPoint x="1060" y="1970" as="targetPoint" />
          </mxGeometry>
        </mxCell>
        <mxCell id="5QMFtwSGgLobkVOJC3eS-115" value="开处方" style="edgeLabel;html=1;align=center;verticalAlign=middle;resizable=0;points=[];fontSize=16;fontFamily=Courier New;fontStyle=1" vertex="1" connectable="0" parent="5QMFtwSGgLobkVOJC3eS-114">
          <mxGeometry x="0.0941" y="-2" relative="1" as="geometry">
            <mxPoint y="7" as="offset" />
          </mxGeometry>
        </mxCell>
        <mxCell id="5QMFtwSGgLobkVOJC3eS-116" value="生成处方记录&lt;br style=&quot;font-size: 16px;&quot;&gt;&amp;amp; 购药订单" style="rounded=1;whiteSpace=wrap;html=1;absoluteArcSize=1;arcSize=14;strokeWidth=2;fontSize=16;fontFamily=Courier New;fontStyle=1" vertex="1" parent="1">
          <mxGeometry x="1010" y="1970" width="100" height="60" as="geometry" />
        </mxCell>
        <mxCell id="5QMFtwSGgLobkVOJC3eS-122" style="edgeStyle=orthogonalEdgeStyle;rounded=0;orthogonalLoop=1;jettySize=auto;html=1;entryX=0;entryY=0.5;entryDx=0;entryDy=0;entryPerimeter=0;fontStyle=1;fontFamily=Courier New;fontSize=16;" edge="1" parent="1" source="5QMFtwSGgLobkVOJC3eS-117" target="5QMFtwSGgLobkVOJC3eS-2">
          <mxGeometry relative="1" as="geometry">
            <Array as="points">
              <mxPoint x="160" y="2130" />
              <mxPoint x="160" y="510" />
            </Array>
          </mxGeometry>
        </mxCell>
        <mxCell id="5QMFtwSGgLobkVOJC3eS-117" value="用户是否支付" style="strokeWidth=2;html=1;shape=mxgraph.flowchart.decision;whiteSpace=wrap;fontSize=16;fontFamily=Courier New;fontStyle=1" vertex="1" parent="1">
          <mxGeometry x="1010" y="2080" width="100" height="100" as="geometry" />
        </mxCell>
        <mxCell id="5QMFtwSGgLobkVOJC3eS-125" style="edgeStyle=orthogonalEdgeStyle;rounded=0;orthogonalLoop=1;jettySize=auto;html=1;entryX=0;entryY=0.5;entryDx=0;entryDy=0;entryPerimeter=0;fontStyle=1;fontFamily=Courier New;fontSize=16;" edge="1" parent="1" source="5QMFtwSGgLobkVOJC3eS-118" target="5QMFtwSGgLobkVOJC3eS-2">
          <mxGeometry relative="1" as="geometry">
            <Array as="points">
              <mxPoint x="160" y="2520" />
              <mxPoint x="160" y="510" />
            </Array>
          </mxGeometry>
        </mxCell>
        <mxCell id="5QMFtwSGgLobkVOJC3eS-118" value="医生点击&lt;br style=&quot;font-size: 16px;&quot;&gt;结束问诊" style="verticalLabelPosition=middle;verticalAlign=middle;html=1;shape=trapezoid;perimeter=trapezoidPerimeter;whiteSpace=wrap;size=0.23;arcSize=10;flipV=1;labelPosition=center;align=center;fontSize=16;fontFamily=Courier New;fontStyle=1" vertex="1" parent="1">
          <mxGeometry x="1230" y="2490" width="100" height="60" as="geometry" />
        </mxCell>
      </root>
    </mxGraphModel>
  </diagram>
</mxfile>
